<?xml version="1.0" encoding="UTF-8" standalone="no"?>
<!DOCTYPE svg PUBLIC "-//W3C//DTD SVG 1.1//EN"
 "http://www.w3.org/Graphics/SVG/1.1/DTD/svg11.dtd">
<!-- Generated by graphviz version 2.38.0 (20140413.2041)
 -->
<!-- Title: controllers_diagram Pages: 1 -->
<svg width="440pt" height="453pt"
 viewBox="0.00 0.00 439.68 453.00" xmlns="http://www.w3.org/2000/svg" xmlns:xlink="http://www.w3.org/1999/xlink">
<g id="graph0" class="graph" transform="scale(1 1) rotate(0) translate(83.9897 225.5)">
<title>controllers_diagram</title>
<polygon fill="white" stroke="none" points="-83.9897,227.5 -83.9897,-225.5 355.688,-225.5 355.688,227.5 -83.9897,227.5"/>
<!-- _diagram_info -->
<g id="node1" class="node"><title>_diagram_info</title>
<text text-anchor="start" x="152.312" y="-203.1" font-family="Times,serif" font-size="13.00">Controllers diagram</text>
<text text-anchor="start" x="152.312" y="-190.1" font-family="Times,serif" font-size="13.00">Date: Jul 09 2015 &#45; 21:32</text>
<text text-anchor="start" x="152.312" y="-177.1" font-family="Times,serif" font-size="13.00">Migration version: 20150710001945</text>
<text text-anchor="start" x="152.312" y="-164.1" font-family="Times,serif" font-size="13.00">Generated by RailRoady 1.3.0</text>
<text text-anchor="start" x="152.312" y="-151.1" font-family="Times,serif" font-size="13.00">http://railroady.prestonlee.com</text>
</g>
<!-- ApplicationController -->
<g id="node2" class="node"><title>ApplicationController</title>
<path fill="none" stroke="black" d="M-67.8208,-129C-67.8208,-129 47.8208,-129 47.8208,-129 53.8208,-129 59.8208,-135 59.8208,-141 59.8208,-141 59.8208,-209 59.8208,-209 59.8208,-215 53.8208,-221 47.8208,-221 47.8208,-221 -67.8208,-221 -67.8208,-221 -73.8208,-221 -79.8208,-215 -79.8208,-209 -79.8208,-209 -79.8208,-141 -79.8208,-141 -79.8208,-135 -73.8208,-129 -67.8208,-129"/>
<text text-anchor="middle" x="-10" y="-205.8" font-family="Times,serif" font-size="14.00">ApplicationController</text>
<polyline fill="none" stroke="black" points="-79.8208,-199 59.8208,-199 "/>
<polyline fill="none" stroke="black" points="-79.8208,-175 59.8208,-175 "/>
<polyline fill="none" stroke="black" points="-79.8208,-151 59.8208,-151 "/>
<text text-anchor="start" x="-71.8208" y="-135.8" font-family="Times,serif" font-size="14.00">_layout</text>
</g>
<!-- HomeworksController -->
<g id="node3" class="node"><title>HomeworksController</title>
<path fill="none" stroke="black" d="M-67.9897,111C-67.9897,111 49.9897,111 49.9897,111 55.9897,111 61.9897,105 61.9897,99 61.9897,99 61.9897,-79 61.9897,-79 61.9897,-85 55.9897,-91 49.9897,-91 49.9897,-91 -67.9897,-91 -67.9897,-91 -73.9897,-91 -79.9897,-85 -79.9897,-79 -79.9897,-79 -79.9897,99 -79.9897,99 -79.9897,105 -73.9897,111 -67.9897,111"/>
<text text-anchor="middle" x="-9" y="-75.8" font-family="Times,serif" font-size="14.00">HomeworksController</text>
<polyline fill="none" stroke="black" points="-79.9897,-69 61.9897,-69 "/>
<text text-anchor="start" x="-71.9897" y="-53.8" font-family="Times,serif" font-size="14.00">create</text>
<text text-anchor="start" x="-71.9897" y="-39.8" font-family="Times,serif" font-size="14.00">destroy</text>
<text text-anchor="start" x="-71.9897" y="-25.8" font-family="Times,serif" font-size="14.00">edit</text>
<text text-anchor="start" x="-71.9897" y="-11.8" font-family="Times,serif" font-size="14.00">index</text>
<text text-anchor="start" x="-71.9897" y="2.2" font-family="Times,serif" font-size="14.00">new</text>
<text text-anchor="start" x="-71.9897" y="16.2" font-family="Times,serif" font-size="14.00">show</text>
<text text-anchor="start" x="-71.9897" y="30.2" font-family="Times,serif" font-size="14.00">update</text>
<polyline fill="none" stroke="black" points="-79.9897,37 61.9897,37 "/>
<polyline fill="none" stroke="black" points="-79.9897,61 61.9897,61 "/>
<text text-anchor="start" x="-71.9897" y="76.2" font-family="Times,serif" font-size="14.00">_layout</text>
<text text-anchor="start" x="-71.9897" y="90.2" font-family="Times,serif" font-size="14.00">homework_params</text>
<text text-anchor="start" x="-71.9897" y="104.2" font-family="Times,serif" font-size="14.00">set_homework</text>
</g>
<!-- PagesController -->
<g id="node4" class="node"><title>PagesController</title>
<path fill="none" stroke="black" d="M107.896,223C107.896,223 190.104,223 190.104,223 196.104,223 202.104,217 202.104,211 202.104,211 202.104,145 202.104,145 202.104,139 196.104,133 190.104,133 190.104,133 107.896,133 107.896,133 101.896,133 95.8965,139 95.8965,145 95.8965,145 95.8965,211 95.8965,211 95.8965,217 101.896,223 107.896,223"/>
<text text-anchor="middle" x="149" y="148.2" font-family="Times,serif" font-size="14.00">PagesController</text>
<polyline fill="none" stroke="black" points="95.8965,155 202.104,155 "/>
<text text-anchor="start" x="103.896" y="170.2" font-family="Times,serif" font-size="14.00">index</text>
<polyline fill="none" stroke="black" points="95.8965,177 202.104,177 "/>
<polyline fill="none" stroke="black" points="95.8965,201 202.104,201 "/>
<text text-anchor="start" x="103.896" y="216.2" font-family="Times,serif" font-size="14.00">_layout</text>
</g>
<!-- StudentsController -->
<g id="node5" class="node"><title>StudentsController</title>
<path fill="none" stroke="black" d="M108.114,95C108.114,95 205.886,95 205.886,95 211.886,95 217.886,89 217.886,83 217.886,83 217.886,-95 217.886,-95 217.886,-101 211.886,-107 205.886,-107 205.886,-107 108.114,-107 108.114,-107 102.114,-107 96.1138,-101 96.1138,-95 96.1138,-95 96.1138,83 96.1138,83 96.1138,89 102.114,95 108.114,95"/>
<text text-anchor="middle" x="157" y="-91.8" font-family="Times,serif" font-size="14.00">StudentsController</text>
<polyline fill="none" stroke="black" points="96.1138,-85 217.886,-85 "/>
<text text-anchor="start" x="104.114" y="-69.8" font-family="Times,serif" font-size="14.00">create</text>
<text text-anchor="start" x="104.114" y="-55.8" font-family="Times,serif" font-size="14.00">destroy</text>
<text text-anchor="start" x="104.114" y="-41.8" font-family="Times,serif" font-size="14.00">edit</text>
<text text-anchor="start" x="104.114" y="-27.8" font-family="Times,serif" font-size="14.00">index</text>
<text text-anchor="start" x="104.114" y="-13.8" font-family="Times,serif" font-size="14.00">new</text>
<text text-anchor="start" x="104.114" y="0.2" font-family="Times,serif" font-size="14.00">show</text>
<text text-anchor="start" x="104.114" y="14.2" font-family="Times,serif" font-size="14.00">update</text>
<polyline fill="none" stroke="black" points="96.1138,21 217.886,21 "/>
<polyline fill="none" stroke="black" points="96.1138,45 217.886,45 "/>
<text text-anchor="start" x="104.114" y="60.2" font-family="Times,serif" font-size="14.00">_layout</text>
<text text-anchor="start" x="104.114" y="74.2" font-family="Times,serif" font-size="14.00">set_student</text>
<text text-anchor="start" x="104.114" y="88.2" font-family="Times,serif" font-size="14.00">student_params</text>
</g>
</g>
</svg>
