<?xml version="1.0" encoding="UTF-8" standalone="no"?>
<!DOCTYPE svg PUBLIC "-//W3C//DTD SVG 1.1//EN"
 "http://www.w3.org/Graphics/SVG/1.1/DTD/svg11.dtd">
<!-- Generated by graphviz version 2.38.0 (20140413.2041)
 -->
<!-- Title: models_diagram Pages: 1 -->
<svg width="380pt" height="225pt"
 viewBox="0.00 0.00 379.69 225.00" xmlns="http://www.w3.org/2000/svg" xmlns:xlink="http://www.w3.org/1999/xlink">
<g id="graph0" class="graph" transform="scale(1 1) rotate(0) translate(4 221)">
<title>models_diagram</title>
<polygon fill="white" stroke="none" points="-4,4 -4,-221 375.688,-221 375.688,4 -4,4"/>
<!-- _diagram_info -->
<g id="node1" class="node"><title>_diagram_info</title>
<text text-anchor="start" x="8" y="-202.6" font-family="Times,serif" font-size="13.00">Models diagram</text>
<text text-anchor="start" x="8" y="-189.6" font-family="Times,serif" font-size="13.00">Date: Jul 09 2015 &#45; 21:32</text>
<text text-anchor="start" x="8" y="-176.6" font-family="Times,serif" font-size="13.00">Migration version: 20150710001945</text>
<text text-anchor="start" x="8" y="-163.6" font-family="Times,serif" font-size="13.00">Generated by RailRoady 1.3.0</text>
<text text-anchor="start" x="8" y="-150.6" font-family="Times,serif" font-size="13.00">http://railroady.prestonlee.com</text>
</g>
<!-- Evaluation -->
<g id="node2" class="node"><title>Evaluation</title>
<ellipse fill="none" stroke="black" cx="262.688" cy="-18" rx="48.3341" ry="18"/>
<text text-anchor="middle" x="262.688" y="-13.8" font-family="Times,serif" font-size="14.00">Evaluation</text>
</g>
<!-- Homework -->
<g id="node3" class="node"><title>Homework</title>
<ellipse fill="none" stroke="black" cx="301.688" cy="-90" rx="49.7878" ry="18"/>
<text text-anchor="middle" x="301.688" y="-85.8" font-family="Times,serif" font-size="14.00">Homework</text>
</g>
<!-- Homework&#45;&gt;Evaluation -->
<g id="edge1" class="edge"><title>Homework&#45;&gt;Evaluation</title>
<path fill="none" stroke="#29355b" d="M288.315,-64.9976C284.716,-58.5373 280.806,-51.5206 277.151,-44.959"/>
<ellipse fill="none" stroke="#29355b" cx="290.3" cy="-68.5607" rx="4.00002" ry="4.00002"/>
<polygon fill="#29355b" stroke="#29355b" points="276.909,-44.5247 275.973,-33.5988 274.475,-40.1568 272.042,-35.789 272.042,-35.789 272.042,-35.789 274.475,-40.1568 268.111,-37.9792 276.909,-44.5247 276.909,-44.5247"/>
</g>
<!-- Student -->
<g id="node4" class="node"><title>Student</title>
<ellipse fill="none" stroke="black" cx="262.688" cy="-180.5" rx="37.2594" ry="18"/>
<text text-anchor="middle" x="262.688" y="-176.3" font-family="Times,serif" font-size="14.00">Student</text>
</g>
<!-- Student&#45;&gt;Evaluation -->
<g id="edge3" class="edge"><title>Student&#45;&gt;Evaluation</title>
<path fill="none" stroke="#278c98" d="M252.391,-153.216C245.168,-131.457 237.63,-99.7299 242.688,-72 244.294,-63.1957 247.285,-53.9537 250.474,-45.6977"/>
<polygon fill="#278c98" stroke="#278c98" points="252.427,-153.316 251.504,-164.243 254.087,-158.032 255.748,-162.748 255.748,-162.748 255.748,-162.748 254.087,-158.032 259.993,-161.254 252.427,-153.316 252.427,-153.316"/>
<polygon fill="#278c98" stroke="#278c98" points="250.573,-45.458 258.543,-37.9261 252.477,-40.835 254.382,-36.2119 254.382,-36.2119 254.382,-36.2119 252.477,-40.835 250.221,-34.4977 250.573,-45.458 250.573,-45.458"/>
</g>
<!-- Student&#45;&gt;Homework -->
<g id="edge2" class="edge"><title>Student&#45;&gt;Homework</title>
<path fill="none" stroke="#1a448b" d="M273.312,-155.391C278.547,-143.511 284.868,-129.168 290.214,-117.037"/>
<ellipse fill="none" stroke="#1a448b" cx="271.636" cy="-159.193" rx="4.00002" ry="4.00002"/>
<polygon fill="#1a448b" stroke="#1a448b" points="290.22,-117.023 298.37,-109.687 292.236,-112.448 294.252,-107.872 294.252,-107.872 294.252,-107.872 292.236,-112.448 290.135,-106.058 290.22,-117.023 290.22,-117.023"/>
</g>
<!-- User -->
<g id="node5" class="node"><title>User</title>
<ellipse fill="none" stroke="black" cx="344.688" cy="-180.5" rx="27" ry="18"/>
<text text-anchor="middle" x="344.688" y="-176.3" font-family="Times,serif" font-size="14.00">User</text>
</g>
</g>
</svg>
