<?xml version="1.0" encoding="UTF-8" standalone="no"?>
<!DOCTYPE svg PUBLIC "-//W3C//DTD SVG 1.1//EN"
 "http://www.w3.org/Graphics/SVG/1.1/DTD/svg11.dtd">
<!-- Generated by graphviz version 2.38.0 (20140413.2041)
 -->
<!-- Title: models_diagram Pages: 1 -->
<svg width="589pt" height="523pt"
 viewBox="0.00 0.00 588.97 523.00" xmlns="http://www.w3.org/2000/svg" xmlns:xlink="http://www.w3.org/1999/xlink">
<g id="graph0" class="graph" transform="scale(1 1) rotate(0) translate(4 519)">
<title>models_diagram</title>
<polygon fill="white" stroke="none" points="-4,4 -4,-519 584.966,-519 584.966,4 -4,4"/>
<!-- _diagram_info -->
<g id="node1" class="node"><title>_diagram_info</title>
<text text-anchor="start" x="8" y="-430.6" font-family="Times,serif" font-size="13.00">Models diagram</text>
<text text-anchor="start" x="8" y="-417.6" font-family="Times,serif" font-size="13.00">Date: Jul 09 2015 &#45; 21:32</text>
<text text-anchor="start" x="8" y="-404.6" font-family="Times,serif" font-size="13.00">Migration version: 20150710001945</text>
<text text-anchor="start" x="8" y="-391.6" font-family="Times,serif" font-size="13.00">Generated by RailRoady 1.3.0</text>
<text text-anchor="start" x="8" y="-378.6" font-family="Times,serif" font-size="13.00">http://railroady.prestonlee.com</text>
</g>
<!-- Evaluation -->
<g id="node2" class="node"><title>Evaluation</title>
<path fill="none" stroke="black" d="M232.676,-0.5C232.676,-0.5 348.7,-0.5 348.7,-0.5 354.7,-0.5 360.7,-6.5 360.7,-12.5 360.7,-12.5 360.7,-102.5 360.7,-102.5 360.7,-108.5 354.7,-114.5 348.7,-114.5 348.7,-114.5 232.676,-114.5 232.676,-114.5 226.676,-114.5 220.676,-108.5 220.676,-102.5 220.676,-102.5 220.676,-12.5 220.676,-12.5 220.676,-6.5 226.676,-0.5 232.676,-0.5"/>
<text text-anchor="middle" x="290.688" y="-99.3" font-family="Times,serif" font-size="14.00">Evaluation</text>
<polyline fill="none" stroke="black" points="220.676,-92.5 360.7,-92.5 "/>
<text text-anchor="start" x="228.676" y="-77.3" font-family="Times,serif" font-size="14.00">id :integer</text>
<text text-anchor="start" x="228.676" y="-63.3" font-family="Times,serif" font-size="14.00">homework_id :integer</text>
<text text-anchor="start" x="228.676" y="-49.3" font-family="Times,serif" font-size="14.00">student_id :integer</text>
<text text-anchor="start" x="228.676" y="-35.3" font-family="Times,serif" font-size="14.00">score :string</text>
<text text-anchor="start" x="228.676" y="-21.3" font-family="Times,serif" font-size="14.00">created_at :datetime</text>
<text text-anchor="start" x="228.676" y="-7.3" font-family="Times,serif" font-size="14.00">updated_at :datetime</text>
</g>
<!-- Homework -->
<g id="node3" class="node"><title>Homework</title>
<path fill="none" stroke="black" d="M284.182,-151.5C284.182,-151.5 393.193,-151.5 393.193,-151.5 399.193,-151.5 405.193,-157.5 405.193,-163.5 405.193,-163.5 405.193,-253.5 405.193,-253.5 405.193,-259.5 399.193,-265.5 393.193,-265.5 393.193,-265.5 284.182,-265.5 284.182,-265.5 278.182,-265.5 272.182,-259.5 272.182,-253.5 272.182,-253.5 272.182,-163.5 272.182,-163.5 272.182,-157.5 278.182,-151.5 284.182,-151.5"/>
<text text-anchor="middle" x="338.688" y="-250.3" font-family="Times,serif" font-size="14.00">Homework</text>
<polyline fill="none" stroke="black" points="272.182,-243.5 405.193,-243.5 "/>
<text text-anchor="start" x="280.182" y="-228.3" font-family="Times,serif" font-size="14.00">id :integer</text>
<text text-anchor="start" x="280.182" y="-214.3" font-family="Times,serif" font-size="14.00">student_id :integer</text>
<text text-anchor="start" x="280.182" y="-200.3" font-family="Times,serif" font-size="14.00">title :string</text>
<text text-anchor="start" x="280.182" y="-186.3" font-family="Times,serif" font-size="14.00">description :string</text>
<text text-anchor="start" x="280.182" y="-172.3" font-family="Times,serif" font-size="14.00">created_at :datetime</text>
<text text-anchor="start" x="280.182" y="-158.3" font-family="Times,serif" font-size="14.00">updated_at :datetime</text>
</g>
<!-- Homework&#45;&gt;Evaluation -->
<g id="edge1" class="edge"><title>Homework&#45;&gt;Evaluation</title>
<path fill="none" stroke="#3df83e" d="M318.006,-143.301C316.009,-137.102 313.981,-130.806 311.978,-124.589"/>
<ellipse fill="none" stroke="#3df83e" cx="319.314" cy="-147.362" rx="4.00001" ry="4.00001"/>
<polygon fill="#3df83e" stroke="#3df83e" points="311.927,-124.428 313.143,-113.53 310.393,-119.669 308.86,-114.91 308.86,-114.91 308.86,-114.91 310.393,-119.669 304.577,-116.29 311.927,-124.428 311.927,-124.428"/>
</g>
<!-- Student -->
<g id="node4" class="node"><title>Student</title>
<path fill="none" stroke="black" d="M237.182,-365.5C237.182,-365.5 346.193,-365.5 346.193,-365.5 352.193,-365.5 358.193,-371.5 358.193,-377.5 358.193,-377.5 358.193,-439.5 358.193,-439.5 358.193,-445.5 352.193,-451.5 346.193,-451.5 346.193,-451.5 237.182,-451.5 237.182,-451.5 231.182,-451.5 225.182,-445.5 225.182,-439.5 225.182,-439.5 225.182,-377.5 225.182,-377.5 225.182,-371.5 231.182,-365.5 237.182,-365.5"/>
<text text-anchor="middle" x="291.688" y="-436.3" font-family="Times,serif" font-size="14.00">Student</text>
<polyline fill="none" stroke="black" points="225.182,-429.5 358.193,-429.5 "/>
<text text-anchor="start" x="233.182" y="-414.3" font-family="Times,serif" font-size="14.00">id :integer</text>
<text text-anchor="start" x="233.182" y="-400.3" font-family="Times,serif" font-size="14.00">name :string</text>
<text text-anchor="start" x="233.182" y="-386.3" font-family="Times,serif" font-size="14.00">created_at :datetime</text>
<text text-anchor="start" x="233.182" y="-372.3" font-family="Times,serif" font-size="14.00">updated_at :datetime</text>
</g>
<!-- Student&#45;&gt;Evaluation -->
<g id="edge3" class="edge"><title>Student&#45;&gt;Evaluation</title>
<path fill="none" stroke="#3da2ad" d="M277.837,-355.198C265.951,-303.267 252.259,-221.446 262.688,-151 263.973,-142.317 265.902,-133.321 268.159,-124.501"/>
<polygon fill="#3da2ad" stroke="#3da2ad" points="277.894,-355.439 275.802,-366.203 279.038,-360.306 280.182,-365.173 280.182,-365.173 280.182,-365.173 279.038,-360.306 284.563,-364.143 277.894,-355.439 277.894,-355.439"/>
<polygon fill="#3da2ad" stroke="#3da2ad" points="268.214,-124.297 275.172,-115.821 269.521,-119.47 270.828,-114.644 270.828,-114.644 270.828,-114.644 269.521,-119.47 266.485,-113.468 268.214,-124.297 268.214,-124.297"/>
</g>
<!-- Student&#45;&gt;Homework -->
<g id="edge2" class="edge"><title>Student&#45;&gt;Homework</title>
<path fill="none" stroke="#16c738" d="M303.677,-356.991C309.537,-332.307 316.664,-302.282 322.954,-275.781"/>
<ellipse fill="none" stroke="#16c738" cx="302.694" cy="-361.132" rx="4.00001" ry="4.00001"/>
<polygon fill="#16c738" stroke="#16c738" points="323.01,-275.545 329.698,-266.855 324.165,-270.68 325.32,-265.816 325.32,-265.816 325.32,-265.816 324.165,-270.68 320.942,-264.776 323.01,-275.545 323.01,-275.545"/>
</g>
<!-- User -->
<g id="node5" class="node"><title>User</title>
<path fill="none" stroke="black" d="M388.41,-302.5C388.41,-302.5 568.966,-302.5 568.966,-302.5 574.966,-302.5 580.966,-308.5 580.966,-314.5 580.966,-314.5 580.966,-502.5 580.966,-502.5 580.966,-508.5 574.966,-514.5 568.966,-514.5 568.966,-514.5 388.41,-514.5 388.41,-514.5 382.41,-514.5 376.41,-508.5 376.41,-502.5 376.41,-502.5 376.41,-314.5 376.41,-314.5 376.41,-308.5 382.41,-302.5 388.41,-302.5"/>
<text text-anchor="middle" x="478.688" y="-499.3" font-family="Times,serif" font-size="14.00">User</text>
<polyline fill="none" stroke="black" points="376.41,-492.5 580.966,-492.5 "/>
<text text-anchor="start" x="384.41" y="-477.3" font-family="Times,serif" font-size="14.00">id :integer</text>
<text text-anchor="start" x="384.41" y="-463.3" font-family="Times,serif" font-size="14.00">email :string</text>
<text text-anchor="start" x="384.41" y="-449.3" font-family="Times,serif" font-size="14.00">encrypted_password :string</text>
<text text-anchor="start" x="384.41" y="-435.3" font-family="Times,serif" font-size="14.00">reset_password_token :string</text>
<text text-anchor="start" x="384.41" y="-421.3" font-family="Times,serif" font-size="14.00">reset_password_sent_at :datetime</text>
<text text-anchor="start" x="384.41" y="-407.3" font-family="Times,serif" font-size="14.00">remember_created_at :datetime</text>
<text text-anchor="start" x="384.41" y="-393.3" font-family="Times,serif" font-size="14.00">sign_in_count :integer</text>
<text text-anchor="start" x="384.41" y="-379.3" font-family="Times,serif" font-size="14.00">current_sign_in_at :datetime</text>
<text text-anchor="start" x="384.41" y="-365.3" font-family="Times,serif" font-size="14.00">last_sign_in_at :datetime</text>
<text text-anchor="start" x="384.41" y="-351.3" font-family="Times,serif" font-size="14.00">current_sign_in_ip :inet</text>
<text text-anchor="start" x="384.41" y="-337.3" font-family="Times,serif" font-size="14.00">last_sign_in_ip :inet</text>
<text text-anchor="start" x="384.41" y="-323.3" font-family="Times,serif" font-size="14.00">created_at :datetime</text>
<text text-anchor="start" x="384.41" y="-309.3" font-family="Times,serif" font-size="14.00">updated_at :datetime</text>
</g>
</g>
</svg>
